<svg aria-hidden="true" style="position: absolute; width: 0; height: 0; overflow: hidden;" version="1.1" xmlns="http://www.w3.org/2000/svg" xmlns:xlink="http://www.w3.org/1999/xlink">
<defs>
<symbol id="icon-error-form" viewBox="0 0 32 32">
<path d="M14.667 20h2.667v2.667h-2.667v-2.667zM14.667 9.333h2.667v8h-2.667v-8zM15.987 2.667c-7.36 0-13.32 5.973-13.32 13.333s5.96 13.333 13.32 13.333c7.373 0 13.347-5.973 13.347-13.333s-5.973-13.333-13.347-13.333zM16 26.667c-5.893 0-10.667-4.773-10.667-10.667s4.773-10.667 10.667-10.667 10.667 4.773 10.667 10.667-4.773 10.667-10.667 10.667z"></path>
</symbol>
<symbol id="icon-minimal-icon" viewBox="0 0 241 32">
<path d="M0 31.964v-31.964h5.992l14.795 10.372h0.226l14.795-10.372h5.992v31.964h-7.153v-23.023l-10.148 6.795v16.228h-7.153v-16.228l-10.193-6.795v23.023h-7.153zM48.514 31.964v-31.964h7.153v31.964h-7.153zM62.364 31.964v-31.964h7.243l22.62 22.978v-22.978h7.153v31.964h-7.24l-22.626-23.023v23.023h-7.153zM106.076 31.964v-31.964h7.153v31.964h-7.153zM119.927 31.964v-31.964h5.992l14.797 10.372h0.224l14.797-10.372h5.992v31.964h-7.153v-23.023l-10.15 6.795v16.228h-7.153v-16.228l-10.193-6.795v23.023h-7.153zM165.76 31.964l14.394-31.964h11.042l14.396 31.964h-7.78l-3.040-6.75h-18.195l-3.040 6.75h-7.778zM179.172 19.401h13.009l-6.214-13.811h-0.584l-6.212 13.813zM209.623 31.964v-31.964h7.153v26.153h23.381v5.811h-30.534z"></path>
</symbol>
<symbol id="icon-facebook" viewBox="0 0 32 32">
<path d="M29 16c0-7.18-5.82-13-13-13s-13 5.82-13 13c0 7.18 5.82 13 13 13v0c7.177-0.007 12.993-5.823 13-12.999v-0.001zM17 26.95v-7.95h3c0.552 0 1-0.448 1-1s-0.448-1-1-1v0h-3v-3c0-1.105 0.895-2 2-2v0h2c0.552 0 1-0.448 1-1s-0.448-1-1-1v0h-2c-2.206 0.007-3.993 1.794-4 3.999v3.001h-3c-0.552 0-1 0.448-1 1s0.448 1 1 1v0h3v7.95c-5.629-0.529-10-5.231-10-10.954 0-6.075 4.925-11 11-11s11 4.925 11 11c0 5.723-4.371 10.425-9.956 10.951l-0.044 0.003z"></path>
</symbol>
<symbol id="icon-instagram" viewBox="0 0 32 32">
<path d="M16 10c-3.314 0-6 2.686-6 6s2.686 6 6 6v0c3.314 0 6-2.686 6-6s-2.686-6-6-6v0zM16 20c-2.209 0-4-1.791-4-4s1.791-4 4-4c2.209 0 4 1.791 4 4v0c-0.007 2.206-1.794 3.993-3.999 4h-0.001zM21.5 3.5h-11c-3.866 0-7 3.134-7 7v0 11c0 3.866 3.134 7 7 7v0h11c3.866 0 7-3.134 7-7v0-11c0-3.866-3.134-7-7-7v0zM26.5 21.5c0 2.761-2.239 5-5 5v0h-11c-2.761 0-5-2.239-5-5v0-11c0-2.761 2.239-5 5-5v0h11c2.761 0 5 2.239 5 5v0 11zM24 9.5c0 0.828-0.672 1.5-1.5 1.5s-1.5-0.672-1.5-1.5v0c0-0.828 0.672-1.5 1.5-1.5s1.5 0.672 1.5 1.5v0z"></path>
</symbol>
<symbol id="icon-youtube" viewBox="0 0 32 32">
<path d="M20.55 15.162l-6-4c-0.158-0.102-0.35-0.162-0.556-0.162-0.171 0-0.333 0.041-0.475 0.115l0.006-0.003c-0.315 0.173-0.525 0.502-0.525 0.88 0 0.003 0 0.005 0 0.008v-0 8c-0 0.002-0 0.005-0 0.008 0 0.378 0.21 0.707 0.52 0.877l0.005 0.003c0.148 0.074 0.31 0.112 0.475 0.112 0.195-0.002 0.386-0.058 0.55-0.162l6-4c0.275-0.181 0.454-0.488 0.454-0.838s-0.179-0.656-0.45-0.835l-0.004-0.002zM15 18.138v-4.275l3.2 2.138-3.2 2.138zM29.288 8.725c-0.241-0.944-0.915-1.692-1.793-2.031l-0.020-0.007c-4.275-1.65-11.1-1.637-11.475-1.637s-7.2-0.013-11.475 1.637c-0.897 0.346-1.571 1.094-1.808 2.017l-0.004 0.020c-0.326 1.238-0.713 3.512-0.713 7.275s0.387 6.038 0.712 7.275c0.241 0.944 0.915 1.692 1.793 2.031l0.020 0.007c4.1 1.587 10.526 1.638 11.388 1.638h0.174c0.862 0 7.288-0.050 11.388-1.638 0.898-0.346 1.571-1.094 1.808-2.017l0.004-0.020c0.326-1.238 0.713-3.512 0.713-7.275s-0.387-6.038-0.712-7.275zM27.35 22.776c-0.078 0.31-0.296 0.556-0.581 0.672l-0.007 0.002c-3.962 1.526-10.687 1.5-10.762 1.5h-0.013c-0.062 0-6.787 0.026-10.75-1.5-0.292-0.118-0.509-0.365-0.586-0.668l-0.001-0.007c-0.3-1.138-0.65-3.226-0.65-6.776s0.35-5.638 0.65-6.775c0.077-0.31 0.295-0.557 0.581-0.673l0.007-0.002c3.813-1.462 10.212-1.499 10.738-1.499h0.025c0.075 0 6.8-0.026 10.762 1.499 0.292 0.118 0.51 0.365 0.586 0.668l0.001 0.007c0.301 1.138 0.65 3.225 0.65 6.775s-0.35 5.638-0.65 6.775z"></path>
</symbol>
<symbol id="icon-check" viewBox="0 0 32 32">
<path d="M28.779 6.39c-0.288 0.009-0.547 0.131-0.733 0.323l-16.313 16.313-6.713-6.712c-0.194-0.202-0.467-0.328-0.769-0.328-0.589 0-1.067 0.478-1.067 1.067 0 0.302 0.126 0.575 0.328 0.769l7.467 7.467c0.193 0.193 0.46 0.312 0.754 0.312s0.561-0.119 0.754-0.312l17.067-17.067c0.199-0.194 0.323-0.465 0.323-0.765 0-0.589-0.478-1.067-1.067-1.067-0.011 0-0.022 0-0.033 0l0.002-0z"></path>
</symbol>
<symbol id="icon-close" viewBox="0 0 32 32">
<path d="M6.654 5.32c-0.736 0-1.333 0.597-1.333 1.333 0 0.375 0.154 0.713 0.403 0.955l8.391 8.391-8.391 8.391c-0.253 0.243-0.41 0.584-0.41 0.962 0 0.736 0.597 1.333 1.333 1.333 0.378 0 0.719-0.157 0.961-0.41l0-0 8.391-8.391 8.391 8.391c0.243 0.253 0.584 0.41 0.962 0.41 0.736 0 1.333-0.597 1.333-1.333 0-0.378-0.157-0.719-0.41-0.961l-0-0-8.391-8.391 8.391-8.391c0.249-0.243 0.404-0.581 0.404-0.956 0-0.736-0.597-1.333-1.333-1.333-0.014 0-0.028 0-0.041 0.001l0.002-0c-0.36 0.011-0.683 0.163-0.916 0.403l-8.391 8.391-8.391-8.391c-0.242-0.249-0.581-0.404-0.956-0.404v0z"></path>
</symbol>
<symbol id="icon-hamburger" viewBox="0 0 32 32">
<path d="M29.333 7.667h-26.667c-0.552 0-1-0.448-1-1s0.448-1 1-1v0h26.667c0.552 0 1 0.448 1 1s-0.448 1-1 1v0zM29.333 21h-26.667c-0.552 0-1-0.448-1-1s0.448-1 1-1v0h26.667c0.552 0 1 0.448 1 1s-0.448 1-1 1v0z"></path>
<path d="M29.333 14.333h-26.667c-0.552 0-1-0.448-1-1s0.448-1 1-1v0h26.667c0.552 0 1 0.448 1 1s-0.448 1-1 1v0zM29.333 26.333h-26.667c-0.552 0-1-0.448-1-1s0.448-1 1-1v0h26.667c0.552 0 1 0.448 1 1s-0.448 1-1 1v0z"></path>
</symbol>
<symbol id="icon-approval" viewBox="0 0 32 32">
<path d="M30.821 30.567c0.006-0.009 0.011-0.017 0.017-0.025 0.105-0.158 0.182-0.337 0.182-0.542 0-0.055-0.011-0.106-0.020-0.159v-13.841c0-0.113-0.025-0.221-0.061-0.325-0.008-0.022-0.019-0.043-0.028-0.065-0.054-0.124-0.124-0.24-0.224-0.334 0-0.001 0-0.002-0.001-0.002l-3.686-3.485v-4.579c0-0.553-0.447-1-1-1s-1 0.447-1 1v10.868l-3.327 2.18-4.966-4.965c-0.391-0.391-1.023-0.391-1.414 0l-4.966 4.965-3.327-2.18v-15.078h14.54c0.553 0 1-0.447 1-1s-0.447-1-1-1h-15.54c-0.553 0-1 0.447-1 1v9.789l-3.687 3.484c-0.001 0-0.001 0.001-0.001 0.002-0.1 0.094-0.17 0.21-0.224 0.334-0.010 0.022-0.021 0.043-0.028 0.065-0.035 0.105-0.060 0.213-0.060 0.326v14c0 0.016 0.006 0.030 0.007 0.046 0.002 0.050 0.013 0.098 0.022 0.147s0.019 0.098 0.035 0.145c0.006 0.015 0.006 0.030 0.012 0.045 0.013 0.029 0.033 0.053 0.049 0.081 0.023 0.045 0.047 0.089 0.078 0.13 0.029 0.039 0.063 0.073 0.096 0.107s0.068 0.066 0.107 0.096c0.041 0.031 0.085 0.055 0.13 0.078 0.028 0.016 0.052 0.036 0.081 0.049 0.012 0.005 0.024 0.003 0.037 0.008 0.11 0.040 0.225 0.068 0.346 0.068h28c0.007 0 0.015 0 0.020 0 0.217 0 0.406-0.083 0.57-0.2 0.018-0.014 0.038-0.023 0.055-0.037 0.069-0.057 0.125-0.122 0.176-0.196zM23.117 21.703l0.268-0.176 3.163-2.070c0.001-0.001 0.002-0.002 0.003-0.003l2.449-1.603v9.734l-5.883-5.882zM27 14.541l1.393 1.316-1.393 0.912v-2.228zM3 17.851l2.449 1.604c0.001 0.001 0.002 0.002 0.003 0.003l3.431 2.246-5.883 5.882v-9.735zM5 16.769l-1.393-0.911 1.393-1.317v2.228zM4.414 29l11.586-11.586 11.586 11.586h-23.172z"></path>
<path d="M10.684 6.301c-0.402-0.377-1.037-0.357-1.413 0.046-0.378 0.402-0.358 1.035 0.045 1.413l5.311 4.971c0.192 0.18 0.438 0.27 0.684 0.27s0.491-0.090 0.684-0.27l10.689-10c0.403-0.378 0.424-1.011 0.047-1.414-0.379-0.402-1.010-0.424-1.414-0.047l-10.006 9.361-4.627-4.33z"></path>
</symbol>

</defs>
</svg>
